<?xml version="1.0" encoding="utf-8"?>
<!-- Generator: Adobe Illustrator 27.2.0, SVG Export Plug-In . SVG Version: 6.00 Build 0)  -->
<svg version="1.1" id="Layer_1" xmlns="http://www.w3.org/2000/svg" xmlns:xlink="http://www.w3.org/1999/xlink" x="0px" y="0px"
	 viewBox="0 0 644.2 649.3" style="enable-background:new 0 0 644.2 649.3;" xml:space="preserve">
<style type="text/css">
	.st0{fill:#01D2FE;}
	.st1{fill:#010101;}
</style>
<path class="st0" d="M216.4,297.5c-16.5-18.2-33-36.3-49.5-54.4c-5.6-6.2-11.4-12.3-19.7-21.3c34.7,0,65.9,0,97,0
	c15.3,16.1,30.8,32.2,47.5,49.7c36.2-59.4,71.6-117.5,107.1-175.9H509c-50.3,83.3-99.7,165.1-149.5,247.4
	c54.3,57.1,108,113.5,163.5,171.8h-96.3c-33.8-35.3-68.8-71.6-105-109.4c-30.5,50.3-60.3,99.5-90.1,148.6H121.1
	c11.1-18.1,21.3-34.6,31.3-51.2c19.7-32.6,39.3-65.1,58.8-97.7c1.2-2.1,1-5,1.5-7.5c13.4-20.6,26.7-41.1,40-61.7
	c0.4,0,0.9,0,1.3-0.1c-0.1-0.8,0.1-1.8-0.4-2.2C241.2,321.4,228.8,309.5,216.4,297.5L216.4,297.5z"/>
<path class="st0" d="M195.9,353c0.1,0,0.2,0.1,0.4,0.1h-0.2L195.9,353L195.9,353z"/>
<path class="st1" d="M612.3,618v-93.1h31.9v124.4H520.4V618H612.3z"/>
<path class="st1" d="M-0.1,524.6H32v93h92.4v31.5H-0.1L-0.1,524.6L-0.1,524.6z"/>
<path class="st1" d="M32.4,32v92H0.3V0.6h124.1V32H32.4z"/>
<path class="st1" d="M612.1,123.9V32.6h-91.5V0.3c1.6-0.1,2.8-0.3,4.1-0.3c39.6,0,79.1,0,119.3,0v123.9H612.1z"/>
</svg>
