<?xml version="1.0" encoding="utf-8"?>
<!-- Generator: Adobe Illustrator 27.2.0, SVG Export Plug-In . SVG Version: 6.00 Build 0)  -->
<svg version="1.1" id="Layer_1" xmlns="http://www.w3.org/2000/svg" xmlns:xlink="http://www.w3.org/1999/xlink" x="0px" y="0px"
	 viewBox="0 0 644.2 728.6" style="enable-background:new 0 0 644.2 728.6;" xml:space="preserve">
<style type="text/css">
	.st0{fill:#01D2FE;}
</style>
<path class="st0" d="M156.8,321.8c-25.8-28.4-51.6-56.7-77.4-85.1c-8.8-9.7-17.8-19.3-30.8-33.3c54.3,0,103,0,151.7,0
	c24,25.2,48.1,50.4,74.2,77.7C331.1,188.2,386.4,97.4,441.9,6h172.4c-78.7,130.3-155.9,258.1-233.7,386.8
	c84.9,89.2,168.9,177.4,255.7,268.6H485.7c-52.9-55.2-107.5-112-164.1-171.1c-47.7,78.7-94.3,155.5-140.9,232.4H7.8
	c17.3-28.3,33.3-54.1,49-80c30.8-50.9,61.4-101.8,91.9-152.8c1.9-3.3,1.6-7.8,2.3-11.8c20.9-32.2,41.7-64.3,62.6-96.4
	c0.7,0,1.4,0,2.1-0.1c-0.2-1.2,0.1-2.8-0.6-3.4c-19.4-18.9-38.9-37.6-58.4-56.3L156.8,321.8z"/>
<path class="st0" d="M200.2,391.7c0.1,0,0.2,0.1,0.4,0.1h-0.2L200.2,391.7L200.2,391.7z"/>
</svg>
