<?xml version="1.0" encoding="UTF-8"?>
<svg id="Layer_1" data-name="Layer 1" xmlns="http://www.w3.org/2000/svg" viewBox="0 0 439.1 199.64">
  <defs>
    <style>
      .cls-1 {
        fill: #fff;
      }

      .cls-2 {
        fill: #01d2fe;
      }
    </style>
  </defs>
  <path class="cls-1" d="m123.26,130.66c-4.05-2.18-8.1-4.37-12.19-6.57.31,12.84.63,26.03.95,39.42h-27.49V48.06h26.79v6.71c2.19-1.38,3.98-2.55,5.8-3.65,9.1-5.51,19.01-6.35,29.33-5.21,7.07.78,13.53,3.03,19.25,7.25,7.52,5.54,11.49,13.29,13.3,22.25,2.31,11.43,1.94,22.76-2.24,33.71-5.86,15.35-19.69,24.29-37.31,23.9-5.29-.12-10.55-1.47-15.83-2.25-.12-.03-.24-.07-.36-.1Zm30.09-41.58c-.11-.02-.22-.03-.34-.05,0-.7.01-1.4,0-2.1-.31-18.2-16.11-23.52-27.83-18.92-15.07,5.92-18.29,27.92-5.85,38.98,10,8.89,29.11,6.7,32.72-9.43.62-2.78.88-5.65,1.3-8.47Z"/>
  <path class="cls-1" d="m261.18,123.68c-8.55,8.55-19.1,12.05-30.97,12.36-8.03.21-15.88-.43-23.28-3.84-13.52-6.23-20.83-17.26-23.24-31.5-1.96-11.53-1.25-23,4.25-33.69,6.09-11.85,16-18.69,28.85-21.53.14,0,.29.01.43.02,13.02-1.92,25.49-.95,36.45,7.27,8.13,6.09,12.71,14.47,15.03,24.2.16.67.34,1.34.52,2-7.93,0-15.86,0-24.7,0,2.1,2.28,3.57,3.84,5.01,5.42,4.2,4.61,8.4,9.23,12.6,13.85h-53.3c-.17,6.47,3.77,13.26,9.54,15.39,9.6,3.54,18.31,2.12,25.23-5.65h27.77l-10.18,15.71Zm-52.27-44.69h35.17c-.66-7.11-5.73-12.82-15.19-13.6-9.02-.74-17.3,2.61-19.98,13.6Z"/>
  <path class="cls-1" d="m0,107.44c9.2-1.02,18.26-2.01,27.29-3.01,2.26,9.28,8.74,10.57,17.33,10.38,2.51-.06,5.06-.84,7.48-1.63,2.2-.72,3.69-2.43,3.77-4.86.07-2.42-1.18-4.45-3.4-5.15-4.6-1.45-9.35-2.42-14-3.74-7.59-2.15-15.43-3.75-22.65-6.78-9.38-3.94-13.06-12.53-12.22-23.05,1.05-13.13,9.74-19.54,21.25-22.64,11.7-3.15,23.55-2.98,35.15.98,10.48,3.58,16.78,10.93,19.31,21.92-8.94.96-17.76,1.92-26.54,2.86-1.8-5.99-4.56-8.15-10.6-7.98-3.04.08-6.14.44-9.08,1.19-2.13.54-3.86,2.08-3.83,4.71.02,2.51,1.63,3.84,3.75,4.42,6.65,1.82,13.32,3.57,20.02,5.18,7.04,1.7,14.01,3.48,20.04,7.76,7.35,5.22,9.55,12.64,8.86,21.14-1.02,12.58-8.41,19.98-20.07,23.42-14.41,4.24-28.84,4.15-42.98-1.09-9.96-3.69-16.13-10.99-18.54-21.38-.2-.84-.22-1.73-.34-2.65Z"/>
  <path class="cls-2" d="m262.12,98.23c-4.2-4.62-8.4-9.23-12.6-13.85-1.44-1.58-2.9-3.14-5.01-5.42,8.84,0,16.77,0,24.7,0,3.91,4.1,7.83,8.2,12.08,12.65,9.21-15.13,18.21-29.91,27.26-44.79h28.07c-12.81,21.21-25.38,42.02-38.04,62.97,13.82,14.52,27.5,28.88,41.63,43.73h-24.53c-8.61-8.98-17.5-18.24-26.72-27.86-7.77,12.81-15.35,25.31-22.94,37.83h-28.15c2.82-4.61,5.42-8.81,7.97-13.03,5.01-8.28,10-16.57,14.96-24.88.31-.53.26-1.27.37-1.92,3.4-5.24,6.79-10.47,10.19-15.7.12,0,.23,0,.34-.02-.03-.19.02-.45-.09-.56-3.16-3.07-6.33-6.12-9.5-9.17Z"/>
  <path class="cls-1" d="m376.21,190.01v-28.63h9.8v38.26h-38.05v-9.63h28.25Z"/>
  <path class="cls-1" d="m187.93,161.3h9.87v28.59h28.4v9.68h-38.28v-38.26Z"/>
  <path class="cls-1" d="m197.91,9.85v28.27h-9.88V.18h38.17v9.67h-28.29Z"/>
  <path class="cls-1" d="m376.15,38.1V10.02h-28.14V.08c.49-.03.87-.08,1.25-.08C361.42,0,373.59,0,385.95,0v38.1h-9.8Z"/>
  <path class="cls-1" d="m333.68,98.27c1.94-1.83,4.1-2.99,6.69-1.68,2.51,1.27,2.68,3.71,2.66,6.17-.02,2.67,0,5.33,0,8-.31.09-.63.17-.94.26-.28-.66-.79-1.3-.81-1.97-.1-2.59.07-5.19-.09-7.77-.07-1.17-.65-2.32-.94-3.26-4.67-.7-6.19.6-6.21,4.79,0,2.66,0,5.31,0,7.97-.29.06-.58.12-.87.17-.21-.59-.58-1.18-.6-1.78-.08-2.49.01-4.99-.1-7.48-.16-3.7-.77-4.17-4.76-3.88-4.63,3.37-1.6,8.78-3.61,12.97v-14.23c.15-.04.3-.09.46-.13.24.52.49,1.05.79,1.71,2.68-2.79,5.52-2.93,8.33.14Z"/>
  <path class="cls-1" d="m394.69,111.34c-.25-.48-.51-.96-.79-1.48-3.92,1.82-7,1.66-8.79-.5-2.05-2.48-2.26-7.62-.43-10.38,1.94-2.93,4.4-3.46,9.17-1.99,1-2.33-.88-5.25,1.72-7.29v20.96c-.29.23-.59.45-.88.68Zm-3.55-14.13c-1.45.53-3.37.73-4.54,1.78-2.18,1.94-2.16,6.77-.39,9.12,1.66,2.21,5.38,2.24,6.96.06,1.97-2.71,1.22-8.26-2.03-10.96Z"/>
  <path class="cls-1" d="m436.62,109.93c-5.05,2.52-7.7,1.68-9.07-3.18,1.1-5.47,5.64-4.05,9.82-4.55-.4-1.58-.76-3.04-1.1-4.39h-4.89c-.8.89-1.47,1.65-2.15,2.4-.38-2.9,1.46-3.85,3.61-4.08,2.31-.25,5.02-.05,5.47,2.78.61,3.86.54,7.84.8,12.36-1.14-.61-1.72-.93-2.48-1.33Zm.47-6.36c-2.75.43-5.87-1.06-7.43,2.05-.51,1.01.37,2.72.58,3.92,5.89.29,6.98-.72,6.84-5.97Z"/>
  <path class="cls-1" d="m369.83,103.69h-11.29c1.08,2.13,1.49,4.07,2.69,5.1,2.92,2.49,5.32.09,7.85-1.99-.87,3.39-3.19,4.89-6.13,4.43-3.33-.52-5.76-3.95-5.49-7.74.33-4.53,2.95-7.56,6.48-7.5,3.41.05,5.35,2.46,5.88,7.7Zm-1-1.32c-1.21-1.95-2.13-3.44-2.89-4.67h-4.39c-.79,1.31-1.69,2.81-2.8,4.67h10.08Z"/>
  <path class="cls-1" d="m412.95,96.33v14.56c-2.06-1.21-2.1-13.13,0-14.56Z"/>
  <path class="cls-1" d="m412.94,89.68v2.61c-.17.09-.34.18-.51.27-.32-.5-.87-.99-.89-1.5-.02-.53.47-1.08.73-1.62.22.08.45.16.67.24Z"/>
  <path class="cls-1" d="m217.21,45.5c-.14,0-.29-.01-.43-.02.21-.11.36-.11.43.02Z"/>
  <path class="cls-1" d="m123.26,130.66c.12.03.24.07.36.1,0,0-.18,0-.18,0l-.18-.11Z"/>
</svg>